<svg width="40" height="40" viewBox="0 0 40 40" fill="none" xmlns="http://www.w3.org/2000/svg">
<path d="M16.0417 22.8333L17.5417 18.0417L13.5833 14.9583H18.4167L20 10L21.5417 14.9583H26.4167L22.4583 18.0417L23.9167 22.8333L20 19.875L16.0417 22.8333ZM10.1667 38.3333V25.6667C8.91667 24.3611 8.02083 22.9306 7.47917 21.375C6.9375 19.8194 6.66667 18.25 6.66667 16.6667C6.66667 12.8889 7.94444 9.72222 10.5 7.16667C13.0556 4.61111 16.2222 3.33333 20 3.33333C23.7778 3.33333 26.9444 4.61111 29.5 7.16667C32.0556 9.72222 33.3333 12.8889 33.3333 16.6667C33.3333 18.25 33.0625 19.8194 32.5208 21.375C31.9792 22.9306 31.0833 24.3611 29.8333 25.6667V38.3333L20 35.0417L10.1667 38.3333ZM20 27.5C23.0278 27.5 25.5903 26.4514 27.6875 24.3542C29.7847 22.2569 30.8333 19.6944 30.8333 16.6667C30.8333 13.6389 29.7847 11.0764 27.6875 8.97917C25.5903 6.88194 23.0278 5.83333 20 5.83333C16.9722 5.83333 14.4097 6.88194 12.3125 8.97917C10.2153 11.0764 9.16667 13.6389 9.16667 16.6667C9.16667 19.6944 10.2153 22.2569 12.3125 24.3542C14.4097 26.4514 16.9722 27.5 20 27.5ZM12.6667 34.8333L20 32.5417L27.3333 34.8333V27.7083C26.2222 28.5139 25.0278 29.0972 23.75 29.4583C22.4722 29.8194 21.2222 30 20 30C18.7778 30 17.5278 29.8194 16.25 29.4583C14.9722 29.0972 13.7778 28.5139 12.6667 27.7083V34.8333Z" fill="url(#paint0_linear_51_141)"/>
<defs>
<linearGradient id="paint0_linear_51_141" x1="20" y1="3.33333" x2="20" y2="38.3333" gradientUnits="userSpaceOnUse">
<stop offset="0.03125" stop-color="#F80000"/>
<stop offset="1" stop-color="#990F0F"/>
</linearGradient>
</defs>
</svg>
