<svg width="31" height="40" viewBox="0 0 31 40" fill="none" xmlns="http://www.w3.org/2000/svg">
<path d="M13.2437 31.25L24.0692 19.8L22.2256 17.85L13.2437 27.35L8.37465 22.2L6.53102 24.15L13.2437 31.25ZM3.12738 40C2.37102 40 1.7092 39.7 1.14192 39.1C0.574652 38.5 0.291016 37.8 0.291016 37V3C0.291016 2.2 0.574652 1.5 1.14192 0.9C1.7092 0.3 2.37102 0 3.12738 0H20.1928L30.5456 10.95V37C30.5456 37.8 30.2619 38.5 29.6947 39.1C29.1274 39.7 28.4656 40 27.7092 40H3.12738ZM18.7747 12.3V3H3.12738V37H27.7092V12.3H18.7747ZM3.12738 3V12.3V3V37V3Z" fill="url(#paint0_linear_37_55)"/>
<defs>
<linearGradient id="paint0_linear_37_55" x1="15.4183" y1="0" x2="15.4183" y2="40" gradientUnits="userSpaceOnUse">
<stop stop-color="#F80000"/>
<stop offset="1" stop-color="#B81212"/>
</linearGradient>
</defs>
</svg>
