<svg width="43" height="40" viewBox="0 0 43 40" fill="none" xmlns="http://www.w3.org/2000/svg">
<path d="M21.1818 37C21.3394 37 21.5206 36.9584 21.7254 36.875C21.9303 36.7917 22.0957 36.6834 22.2218 36.55L38.1527 19.65C38.5624 19.2167 38.8697 18.725 39.0745 18.175C39.2794 17.625 39.3818 17.0667 39.3818 16.5C39.3818 15.9334 39.2794 15.3667 39.0745 14.8C38.8697 14.2334 38.5624 13.7334 38.1527 13.3L29.6436 4.30005C29.2339 3.86672 28.7612 3.54172 28.2254 3.32505C27.6897 3.10838 27.1539 3.00005 26.6182 3.00005C26.0824 3.00005 25.5545 3.10838 25.0345 3.32505C24.5145 3.54172 24.0497 3.86672 23.64 4.30005L22.7891 5.20005L26.6182 9.30005C27.0279 9.76672 27.3903 10.3084 27.7054 10.925C28.0206 11.5417 28.1782 12.2167 28.1782 12.95C28.1782 14.2167 27.7133 15.3334 26.7836 16.3C25.8539 17.2667 24.7903 17.75 23.5927 17.75C22.8048 17.75 22.1509 17.625 21.6309 17.375C21.1109 17.125 20.6303 16.7667 20.1891 16.3L16.7382 12.65L8.1818 21.7001C8.02422 21.8667 7.91392 22.0417 7.85089 22.225C7.78786 22.4084 7.75635 22.6 7.75635 22.8C7.75635 23.2334 7.89029 23.5917 8.15816 23.875C8.42604 24.1584 8.76483 24.3 9.17453 24.3C9.36362 24.3 9.54483 24.25 9.71816 24.15C9.8915 24.05 10.0412 23.9334 10.1673 23.8L16.6909 16.9L18.6763 19L12.2 25.85C12.0424 26.0167 11.9321 26.2 11.8691 26.4C11.806 26.6 11.7745 26.8 11.7745 27C11.7745 27.4 11.9163 27.75 12.2 28.05C12.4836 28.35 12.8145 28.5 13.1927 28.5C13.3818 28.5 13.563 28.4584 13.7363 28.375C13.9097 28.2917 14.0594 28.1834 14.1854 28.05L20.7091 21.15L22.6945 23.25L16.2182 30.1C16.0921 30.2334 15.9897 30.4084 15.9109 30.625C15.8321 30.8417 15.7927 31.05 15.7927 31.25C15.7927 31.65 15.9345 32 16.2182 32.3C16.5018 32.6 16.8327 32.75 17.2109 32.75C17.4 32.75 17.5733 32.7167 17.7309 32.6501C17.8885 32.5834 18.046 32.4667 18.2036 32.3L24.7273 25.4L26.7127 27.5L20.1891 34.4001C20.0315 34.5667 19.9212 34.75 19.8582 34.9501C19.7951 35.1501 19.7636 35.3334 19.7636 35.5C19.7636 35.9667 19.8897 36.3334 20.1418 36.6C20.3939 36.8667 20.7406 37 21.1818 37ZM21.1818 40C20.1418 40 19.2121 39.5917 18.3927 38.7751C17.5733 37.9584 17.0848 36.9501 16.9273 35.75C15.8557 35.5834 14.9576 35.1167 14.2327 34.35C13.5079 33.5834 13.0666 32.6334 12.9091 31.5C11.8376 31.3334 10.9473 30.8584 10.2382 30.0751C9.52907 29.2917 9.09574 28.35 8.93816 27.25C7.7721 27.0834 6.81089 26.5834 6.05453 25.75C5.29816 24.9167 4.91998 23.9167 4.91998 22.75C4.91998 22.1834 5.02241 21.6167 5.22725 21.05C5.4321 20.4834 5.73938 19.9834 6.14907 19.55L16.7382 8.35005L21.9382 13.85C22.1903 14.1167 22.466 14.325 22.7654 14.475C23.0648 14.625 23.3563 14.7 23.64 14.7C24.0497 14.7 24.4357 14.5084 24.7982 14.125C25.1606 13.7417 25.3418 13.3334 25.3418 12.9C25.3418 12.7 25.2866 12.475 25.1763 12.225C25.066 11.975 24.8848 11.7167 24.6327 11.45L17.8727 4.30005C17.463 3.86672 16.9903 3.54172 16.4545 3.32505C15.9188 3.10838 15.383 3.00005 14.8473 3.00005C14.3115 3.00005 13.7836 3.10838 13.2636 3.32505C12.7436 3.54172 12.2788 3.86672 11.8691 4.30005L4.68362 11.9C4.24241 12.3667 3.93513 12.8584 3.7618 13.375C3.58847 13.8917 3.48604 14.4667 3.45453 15.1C3.42301 15.7667 3.54119 16.4084 3.80907 17.025C4.07695 17.6417 4.39998 18.2001 4.77816 18.7001L2.74544 20.85C2.11513 20.1167 1.60301 19.2334 1.20907 18.2001C0.815134 17.1667 0.618164 16.1167 0.618164 15.05C0.618164 14.05 0.799376 13.0917 1.1618 12.175C1.52422 11.2584 2.03635 10.45 2.69816 9.75005L9.83635 2.20005C10.5297 1.46672 11.3176 0.925048 12.2 0.575048C13.0824 0.225048 13.9806 0.0500488 14.8945 0.0500488C15.8085 0.0500488 16.6988 0.225048 17.5654 0.575048C18.4321 0.925048 19.2121 1.46672 19.9054 2.20005L20.7563 3.10005L21.6073 2.20005C22.3006 1.46672 23.0885 0.925048 23.9709 0.575048C24.8533 0.225048 25.7515 0.0500488 26.6654 0.0500488C27.5794 0.0500488 28.4697 0.225048 29.3363 0.575048C30.203 0.925048 30.983 1.46672 31.6763 2.20005L40.1382 11.15C40.8315 11.8834 41.3515 12.7167 41.6982 13.65C42.0448 14.5834 42.2182 15.5334 42.2182 16.5C42.2182 17.4667 42.0448 18.4084 41.6982 19.3251C41.3515 20.2417 40.8315 21.0667 40.1382 21.8L24.2073 38.6501C23.7976 39.0834 23.3327 39.4167 22.8127 39.6501C22.2927 39.8834 21.7491 40 21.1818 40Z" fill="url(#paint0_linear_37_57)"/>
<defs>
<linearGradient id="paint0_linear_37_57" x1="21.4182" y1="0.0500488" x2="21.4182" y2="40" gradientUnits="userSpaceOnUse">
<stop stop-color="#F80000"/>
<stop offset="1" stop-color="#B81212"/>
</linearGradient>
</defs>
</svg>
