<svg width="40" height="40" viewBox="0 0 40 40" fill="none" xmlns="http://www.w3.org/2000/svg">
<path d="M13.1667 34.1667H26.8333V28.875C26.8333 26.9306 26.1736 25.2569 24.8542 23.8542C23.5347 22.4514 21.9167 21.75 20 21.75C18.0833 21.75 16.4653 22.4514 15.1458 23.8542C13.8264 25.2569 13.1667 26.9306 13.1667 28.875V34.1667ZM20 18.25C21.9167 18.25 23.5347 17.5486 24.8542 16.1458C26.1736 14.7431 26.8333 13.0556 26.8333 11.0833V5.83334H13.1667V11.0833C13.1667 13.0556 13.8264 14.7431 15.1458 16.1458C16.4653 17.5486 18.0833 18.25 20 18.25ZM6.66667 36.6667V34.1667H10.6667V28.875C10.6667 26.9306 11.1736 25.1458 12.1875 23.5208C13.2014 21.8958 14.6111 20.7222 16.4167 20C14.6111 19.2778 13.2014 18.0972 12.1875 16.4583C11.1736 14.8194 10.6667 13.0278 10.6667 11.0833V5.83334H6.66667V3.33334H33.3333V5.83334H29.3333V11.0833C29.3333 13.0278 28.8194 14.8194 27.7917 16.4583C26.7639 18.0972 25.3611 19.2778 23.5833 20C25.3889 20.7222 26.7986 21.8958 27.8125 23.5208C28.8264 25.1458 29.3333 26.9306 29.3333 28.875V34.1667H33.3333V36.6667H6.66667Z" fill="url(#paint0_linear_51_145)"/>
<defs>
<linearGradient id="paint0_linear_51_145" x1="20" y1="3.33334" x2="20" y2="36.6667" gradientUnits="userSpaceOnUse">
<stop stop-color="#F80000"/>
<stop offset="1" stop-color="#B81212"/>
</linearGradient>
</defs>
</svg>
