<svg width="80" height="81" viewBox="0 0 80 81" fill="none" xmlns="http://www.w3.org/2000/svg">
<path d="M68.3124 11.6828C64.6282 7.96447 60.2408 5.01654 55.4058 3.01082C50.5709 1.0051 45.3851 -0.0183037 40.1507 0.000247767C18.217 0.000247767 0.341537 17.8707 0.321446 39.8094C0.321446 46.836 2.15972 53.6718 5.63034 59.724L0 80.3619L21.115 74.8269C26.9563 78.0058 33.5004 79.6721 40.1507 79.6738H40.1708C62.1095 79.6738 79.9799 61.8033 80 39.8445C80.005 34.6112 78.9744 29.4286 76.9677 24.5953C74.9609 19.762 72.0176 15.3736 68.3074 11.6828H68.3124ZM40.1507 72.9334C34.219 72.9354 28.3963 71.3392 23.2948 68.3126L22.0894 67.5894L9.56303 70.8742L12.9081 58.6542L12.1246 57.3935C8.80867 52.1214 7.05498 46.0174 7.0668 39.7893C7.0668 21.5773 21.9186 6.72049 40.1708 6.72049C44.519 6.71269 48.8258 7.56566 52.8429 9.23024C56.8599 10.8948 60.5078 13.3381 63.5761 16.4191C66.6551 19.4882 69.096 23.1365 70.758 27.1536C72.42 31.1707 73.2703 35.4771 73.2597 39.8244C73.2396 58.1017 58.3877 72.9334 40.1507 72.9334ZM58.3074 48.1519C57.3179 47.6547 52.4309 45.2489 51.5118 44.9073C50.5977 44.5808 49.9297 44.4101 49.2767 45.4046C48.6087 46.394 46.7001 48.6492 46.1276 49.2971C45.555 49.9651 44.9623 50.0404 43.9678 49.5482C42.9784 49.0459 39.769 48.0012 35.9719 44.6009C33.0085 41.9641 31.0246 38.6994 30.4319 37.7099C29.8594 36.7155 30.3767 36.1831 30.8739 35.6858C31.3109 35.2438 31.8634 34.5206 32.3606 33.948C32.8629 33.3754 33.0286 32.9535 33.3551 32.2905C33.6816 31.6175 33.5259 31.0449 33.2798 30.5477C33.0286 30.0505 31.0447 25.1434 30.2059 23.1645C29.4023 21.2107 28.5836 21.4819 27.9709 21.4568C27.3983 21.4216 26.7303 21.4216 26.0623 21.4216C25.5578 21.4342 25.0614 21.5508 24.6042 21.7643C24.147 21.9778 23.7388 22.2835 23.4053 22.6622C22.4912 23.6567 19.9347 26.0625 19.9347 30.9696C19.9347 35.8767 23.5007 40.5929 24.003 41.2609C24.4952 41.9289 31.0045 51.9691 40.9945 56.2885C43.3551 57.3182 45.2135 57.9259 46.665 58.388C49.0507 59.1514 51.2054 59.0359 52.9231 58.7898C54.8317 58.4985 58.8046 56.3789 59.6434 54.0535C60.4671 51.723 60.4671 49.734 60.216 49.3172C59.9699 48.8953 59.3018 48.6492 58.3074 48.1519Z" fill="url(#paint0_linear_37_139)"/>
<defs>
<linearGradient id="paint0_linear_37_139" x1="40" y1="0" x2="40" y2="80.3619" gradientUnits="userSpaceOnUse">
<stop/>
<stop offset="1"/>
</linearGradient>
</defs>
</svg>
