<svg width="39" height="28" viewBox="0 0 39 28" fill="none" xmlns="http://www.w3.org/2000/svg">
<path d="M0.509033 28V15.25C0.509033 14.4167 0.666609 13.6333 0.98176 12.9C1.29691 12.1667 1.76964 11.5667 2.39994 11.1V5.3C2.39994 3.8 2.88055 2.54167 3.84176 1.525C4.80297 0.508333 5.99267 0 7.41085 0H15.9199C16.6133 0 17.2593 0.166667 17.8581 0.5C18.4569 0.833333 18.9769 1.28333 19.4181 1.85C19.8593 1.28333 20.3715 0.833333 20.9545 0.5C21.5375 0.166667 22.1757 0 22.869 0H31.3781C32.7963 0 33.9939 0.508333 34.9708 1.525C35.9478 2.54167 36.4363 3.8 36.4363 5.3V11.1C37.0666 11.5667 37.5393 12.1667 37.8545 12.9C38.1696 13.6333 38.3272 14.4167 38.3272 15.25V28H35.4908V24H3.3454V28H0.509033ZM20.8363 10.25H33.5999V5.3C33.5999 4.63333 33.3872 4.08333 32.9618 3.65C32.5363 3.21667 32.0084 3 31.3781 3H22.7272C22.1915 3 21.7424 3.23333 21.3799 3.7C21.0175 4.16667 20.8363 4.7 20.8363 5.3V10.25ZM5.23631 10.25H17.9999V5.3C17.9999 4.7 17.8187 4.16667 17.4563 3.7C17.0939 3.23333 16.6448 3 16.109 3H7.41085C6.81206 3 6.29994 3.225 5.87449 3.675C5.44903 4.125 5.23631 4.66667 5.23631 5.3V10.25ZM3.3454 21H35.4908V15.25C35.4908 14.6833 35.3096 14.2083 34.9472 13.825C34.5848 13.4417 34.1357 13.25 33.5999 13.25H5.23631C4.70055 13.25 4.25146 13.4417 3.88903 13.825C3.52661 14.2083 3.3454 14.6833 3.3454 15.25V21ZM35.4908 21H3.3454H35.4908Z" fill="url(#paint0_linear_37_51)"/>
<defs>
<linearGradient id="paint0_linear_37_51" x1="19.4181" y1="0" x2="19.4181" y2="28" gradientUnits="userSpaceOnUse">
<stop stop-color="#F80000"/>
<stop offset="1" stop-color="#B81212"/>
</linearGradient>
</defs>
</svg>
