<svg width="35" height="42" viewBox="0 0 35 42" fill="none" xmlns="http://www.w3.org/2000/svg">
<path d="M11.7454 3V0H23.0908V3H11.7454ZM15.9999 25.35H18.8363V13.85H15.9999V25.35ZM17.4181 41.95C15.086 41.95 12.8878 41.475 10.8235 40.525C8.7593 39.575 6.95505 38.2833 5.41081 36.65C3.86657 35.0167 2.64536 33.1083 1.74718 30.925C0.848993 28.7417 0.399902 26.4167 0.399902 23.95C0.399902 21.4833 0.848993 19.1583 1.74718 16.975C2.64536 14.7917 3.86657 12.8833 5.41081 11.25C6.95505 9.61667 8.7593 8.325 10.8235 7.375C12.8878 6.425 15.086 5.95 17.4181 5.95C19.5296 5.95 21.5151 6.325 23.3744 7.075C25.2338 7.825 26.8884 8.86667 28.3381 10.2L30.749 7.65L32.7344 9.75L30.3235 12.3C31.4581 13.6333 32.4272 15.25 33.2308 17.15C34.0344 19.05 34.4363 21.3167 34.4363 23.95C34.4363 26.4167 33.9872 28.7417 33.089 30.925C32.1908 33.1083 30.9696 35.0167 29.4254 36.65C27.8811 38.2833 26.0769 39.575 24.0126 40.525C21.9484 41.475 19.7502 41.95 17.4181 41.95ZM17.4181 38.95C21.3575 38.95 24.706 37.4917 27.4635 34.575C30.2211 31.6583 31.5999 28.1167 31.5999 23.95C31.5999 19.7833 30.2211 16.2417 27.4635 13.325C24.706 10.4083 21.3575 8.95 17.4181 8.95C13.4787 8.95 10.1302 10.4083 7.37263 13.325C4.61505 16.2417 3.23627 19.7833 3.23627 23.95C3.23627 28.1167 4.61505 31.6583 7.37263 34.575C10.1302 37.4917 13.4787 38.95 17.4181 38.95Z" fill="url(#paint0_linear_37_59)"/>
<defs>
<linearGradient id="paint0_linear_37_59" x1="17.4181" y1="0" x2="17.4181" y2="41.95" gradientUnits="userSpaceOnUse">
<stop stop-color="#F80000"/>
<stop offset="1" stop-color="#B81212"/>
</linearGradient>
</defs>
</svg>
