<svg width="187" height="47" viewBox="0 0 187 47" fill="none" xmlns="http://www.w3.org/2000/svg">
<path d="M55 36.0184V23.5184H62V36.0184C64 43.0184 69 38.5184 69 36.0184V29.0184H75.5C75.5 35.0184 75 46.0184 65 46.0184C57 46.0184 55 39.3517 55 36.0184Z" fill="#0015D5"/>
<path d="M79.5 23.5184H101.5V46.0184H94.5L94 25.5184H86.5V46.0184H79.5V23.5184Z" fill="#0015D5"/>
<path d="M50 46.0184V23.5184H44L43 26.5184L42 23.5184H37L43 46.0184H50Z" fill="#0015D5"/>
<path d="M34 23.5184V46.0184H28V23.5184H34Z" fill="#0015D5"/>
<path d="M0 46.0184L3.5 23.5184H10L8.5 30.5184H15L14 23.5184H20.5L24.5 46.0184H17.5L16 37.0184H8.5C8.16667 40.0184 7.4 46.0184 7 46.0184H0Z" fill="#0015D5"/>
<path d="M106.5 46.0184V23.5184H113.5V46.0184H106.5Z" fill="#0015D5"/>
<path d="M119 46.0184V23.5184H126V39.0184C130 40.6184 132.333 37.3517 133 35.5184V23.5184H140V35.5184C140.4 41.9184 133.833 45.185 130.5 46.0184H119Z" fill="#0015D5"/>
<path d="M145 46.0184V23.0184H162V25.0184H152V39.0184H164V46.0184H145Z" fill="#0015D5"/>
<path d="M168 46.0184V23.0184H175V39.0184H187V46.0184H168Z" fill="#0015D5"/>
<path d="M21 21.0184L17 0.518366H7.5L4 21.0184H10L12 9.01837L14.5 21.0184H21Z" fill="#F80000"/>
<path d="M28 0.518366V21.0184H34V12.5184L37 21.0184H42.5L36.5 0.518366H28Z" fill="#F80000"/>
<path d="M43.5 0.518366V21.0184H50V0.518366H43.5Z" fill="#F80000"/>
<path d="M55 9.01837V21.0184H62V10.5184C63.2 4.11837 68 7.01837 69 10.5184V15.5184H75.5C76.5 7.51837 73.5 0.518365 65 0.0183655C58.2 -0.381634 55.5 5.8517 55 9.01837Z" fill="#F80000"/>
<path d="M80 1.01837L79.5 21.0184H101V1.01837H94.5V18.5184H86.5V1.01837H80Z" fill="#F80000"/>
<path d="M106.5 1.01837V21.0184H113.5V1.01837H106.5Z" fill="#F80000"/>
<path d="M119 1.01837V21.0184H126V7.51837C131.6 6.31837 133 10.0184 133 12.0184V21.0184H139.5V10.5184C139.5 4.11837 134.167 1.51837 131.5 1.01837H119Z" fill="#F80000"/>
<path d="M145 1.01837V21.0184H162V18.5184H152V7.51837H164V1.01837H145Z" fill="#F80000"/>
<path d="M175 1.01837H168V21.0184H175V1.01837Z" fill="#F80000"/>
</svg>
